<svg xmlns="http://www.w3.org/2000/svg" width="500" viewBox="0 0 375 375" height="500" version="1.0"><defs><clipPath id="a"><path d="M8.68 1.484h357.75v118.5H8.68Zm0 0"/></clipPath><clipPath id="b"><path d="M8.68 254.598h357.75V372.84H8.68Zm0 0"/></clipPath><clipPath id="c"><path d="M93.684 95.227h187.5v190.5h-187.5Zm0 0"/></clipPath><clipPath id="d"><path d="M286.879 161.063h87.75V163h-87.75Zm0 0"/></clipPath><clipPath id="e"><path d="M286.879 213h87.75v1.313h-87.75Zm0 0"/></clipPath><clipPath id="f"><path d="M.879 161.063h87V163h-87Zm0 0"/></clipPath><clipPath id="g"><path d="M.879 212h87v1.563h-87Zm0 0"/></clipPath></defs><g clip-path="url(#a)"><path d="M365.543 89.66a13.794 13.794 0 0 1-2.043-6.746 11.597 11.597 0 0 1 1.64-6.543l.54-.879-.825-.832a253.223 253.223 0 0 0-8.914-8.465 252.461 252.461 0 0 0-19.023-15.57 250.005 250.005 0 0 0-20.461-13.633 248.396 248.396 0 0 0-10.707-6.05 248.898 248.898 0 0 0-10.992-5.52A252.079 252.079 0 0 0 260.34 12.18a254.985 254.985 0 0 0-11.863-3.274 252.41 252.41 0 0 0-24.133-4.785 251.137 251.137 0 0 0-73.582 0 252.41 252.41 0 0 0-24.133 4.785 253.5 253.5 0 0 0-11.86 3.274 250.178 250.178 0 0 0-23.168 8.27 250.973 250.973 0 0 0-11.253 4.972 251.069 251.069 0 0 0-61.184 40.773c-3.039 2.75-6.012 5.57-8.914 8.465l-.824.832.535.887a11.597 11.597 0 0 1 1.64 6.543 13.748 13.748 0 0 1-2.05 6.742l-.582.957.761.688 30.434 27.48.766.684.773-.52c1.75-1.168 3.68-1.7 5.785-1.59 2.207.11 4.223.79 6.043 2.047l.848.57.617-.62a181.915 181.915 0 0 1 6.66-6.333 188.39 188.39 0 0 1 14.223-11.644 185.8 185.8 0 0 1 7.523-5.285c2.551-1.703 5.141-3.34 7.774-4.914 2.629-1.575 5.3-3.082 8.004-4.524a187.753 187.753 0 0 1 16.633-7.852 191.585 191.585 0 0 1 8.585-3.3c2.887-1.031 5.801-1.992 8.739-2.883 2.933-.887 5.89-1.703 8.867-2.45a190.8 190.8 0 0 1 8.976-2.01 189.16 189.16 0 0 1 18.2-2.691c3.054-.302 6.113-.529 9.18-.677 3.062-.149 6.128-.227 9.199-.227 3.066 0 6.132.078 9.199.227a188.556 188.556 0 0 1 18.309 1.8c3.035.45 6.058.973 9.066 1.567 3.012.598 6.004 1.27 8.98 2.012 2.977.746 5.934 1.562 8.867 2.449a190.425 190.425 0 0 1 17.325 6.184 189.602 189.602 0 0 1 8.41 3.722 183.456 183.456 0 0 1 8.219 4.13 185.352 185.352 0 0 1 15.78 9.437 187.784 187.784 0 0 1 21.742 16.93 182.028 182.028 0 0 1 6.665 6.331l.621.625.844-.574a11.4 11.4 0 0 1 6.039-2.047c2.105-.11 4.035.418 5.79 1.582l.776.532.766-.684 30.422-27.48.762-.688Zm0 0"/></g><g clip-path="url(#b)"><path d="M365.543 284.922a13.794 13.794 0 0 0-2.043 6.746 11.597 11.597 0 0 0 1.64 6.543l.54.879-.825.832a253.223 253.223 0 0 1-8.914 8.465 252.461 252.461 0 0 1-19.023 15.57 250.006 250.006 0 0 1-20.461 13.633 248.396 248.396 0 0 1-10.707 6.05 248.898 248.898 0 0 1-10.992 5.52 252.079 252.079 0 0 1-34.418 13.242 254.984 254.984 0 0 1-11.863 3.274 252.41 252.41 0 0 1-24.133 4.785 251.14 251.14 0 0 1-73.582 0 252.41 252.41 0 0 1-24.133-4.785 253.498 253.498 0 0 1-11.86-3.274 250.178 250.178 0 0 1-23.168-8.27 250.973 250.973 0 0 1-11.253-4.972 251.069 251.069 0 0 1-61.184-40.773c-3.039-2.75-6.012-5.57-8.914-8.465l-.824-.832.535-.887a11.597 11.597 0 0 0 1.64-6.543 13.748 13.748 0 0 0-2.05-6.742l-.582-.957.761-.688 30.434-27.48.766-.684.773.52c1.75 1.168 3.68 1.7 5.785 1.59 2.207-.11 4.223-.79 6.043-2.047l.848-.57.617.62a181.916 181.916 0 0 0 6.66 6.333 188.39 188.39 0 0 0 14.223 11.644 185.799 185.799 0 0 0 7.523 5.285c2.551 1.704 5.141 3.34 7.774 4.914 2.629 1.575 5.3 3.082 8.004 4.524a187.754 187.754 0 0 0 16.633 7.852 191.586 191.586 0 0 0 8.585 3.3c2.887 1.031 5.801 1.992 8.739 2.883 2.933.887 5.89 1.703 8.867 2.45 2.976.741 5.969 1.413 8.976 2.011a189.157 189.157 0 0 0 18.2 2.691c3.054.301 6.113.528 9.18.676 3.062.149 6.128.227 9.199.227 3.066 0 6.132-.078 9.199-.227a188.554 188.554 0 0 0 18.309-1.8c3.035-.45 6.058-.973 9.066-1.567a189.86 189.86 0 0 0 8.98-2.012 191.936 191.936 0 0 0 8.867-2.449 190.425 190.425 0 0 0 17.325-6.184 189.603 189.603 0 0 0 8.41-3.722 183.454 183.454 0 0 0 8.219-4.13 185.353 185.353 0 0 0 15.78-9.437c2.552-1.699 5.06-3.46 7.524-5.285a187.783 187.783 0 0 0 14.219-11.644 182.029 182.029 0 0 0 6.664-6.332l.621-.625.844.574a11.4 11.4 0 0 0 6.039 2.047c2.105.11 4.035-.418 5.79-1.582l.776-.532.766.684 30.422 27.48.762.688Zm0 0"/></g><g clip-path="url(#c)"><path d="M242.852 123.598c6.054 0 15.613-9.88 23.582-5.735-18.485-42.992-57.008-4.14-79.004-21.976-21.993 17.836-60.512-21.012-79 21.976 7.968-4.14 17.53 5.735 23.586 5.735-10.84 3.5-57.371 25.476-29.641 71.972 0 0 .953-8.597 4.14-12.734.317 10.504 1.594 35.351 15.301 46.176 0 0-.312-12.739 6.692-16.875-.313 9.23 5.422 41.398 30.605 55.73 0 0-.96-12.422 5.094-18.469.957 11.465 3.465 26.434 23.227 35.665 19.765-9.231 22.273-24.2 23.23-35.665 6.055 6.047 5.098 18.47 5.098 18.47 25.18-14.333 30.918-46.5 30.601-55.731 7.012 4.136 6.696 16.875 6.696 16.875 13.707-10.82 14.98-35.668 15.296-46.176 3.188 4.137 4.145 12.734 4.145 12.734 27.719-46.496-18.813-68.472-29.648-71.972Zm15.097-12.582c-6.215-.598-9.8 9.554-26.652 7.879 8.723-2.387 13.023-10.149 18.64-9.434-8.722-4.18-18.632 6.332-27.492 6.332a24.89 24.89 0 0 1-11.79-2.695 24.65 24.65 0 0 1-5.05-3.407 24.797 24.797 0 0 1-4.074-4.527c10.758 2.984 45.54-13.375 56.418 5.852Zm-64.902 12.062a38.694 38.694 0 0 0 3.824 3.465c.238 32.363 14.7 42.871 24.504 48.723-8.727-10.508-17.215-32.961-14.824-42.157 22.234 10.149 27.73 26.75 28.449 34.157 2.148-2.508 3.105-10.27 3.348-12.895 8.363 17.313-6.817 43.11-10.88 45.617 5.02-18.867-48.648-31.77-34.421-76.91Zm20.46 60.395c.958 12.257.54 32.007-26.077 43.949-26.614-11.942-27.028-31.692-26.075-43.95 15.622-12.421 23.844-24.05 26.075-30.421 2.234 6.375 10.46 18 26.078 30.422Zm-31.69-60.395c14.222 45.14-39.442 58.043-34.422 76.91-4.063-2.508-19.247-28.304-10.875-45.617.238 2.625 1.195 10.387 3.347 12.895.715-7.407 6.211-24.008 28.446-34.157 2.39 9.196-6.098 31.649-14.825 42.157 9.801-5.852 24.266-16.36 24.504-48.723a38.258 38.258 0 0 0 3.824-3.465Zm-64.899-12.062c10.875-19.227 45.656-2.868 56.414-5.852a24.776 24.776 0 0 1-4.07 4.527 24.89 24.89 0 0 1-16.848 6.102c-8.855 0-18.766-10.508-27.492-6.332 5.621-.715 9.922 7.055 18.648 9.434-16.851 1.675-20.437-8.477-26.652-7.88Zm-16.137 68.796c-13.988-46.34 43.508-51.949 56.297-57.207-10.047 9.793-34.426 8.48-40.762 28.184 8.606-13.484 36.22-16.957 48.051-23.762-6.453 12.41-58.09 24.832-63.586 52.785Zm19.242 38.813c-4.55-5.73-20.199-46.336 11.473-65.563-1.195 3.938-3.582 23.29-.238 29.973-3.11 3.707-10.996 13.137-9.563 23.172a31.567 31.567 0 0 1 4.926-9.168 31.462 31.462 0 0 1 7.633-7.074c.594 1.074 1.555 3.344 2.508 4.894-4.907 3.22-16.024 16.239-16.739 23.762Zm37.055 37.383c-5.496-3.461-32.992-30.332-16.258-55.774a61.981 61.981 0 0 0 12.192 10.504s-5.02-9.91-.36-16.238c.098 5.902 1.453 16.742 14.743 27.25-2.32 8.563-10.708 12.426-11.997 19.918-2.628-.715-12.902-9.078-14.34-18.512-2.148 14.094 13.747 22.211 14.106 25.918 3.234-8.402 15.477-14.004 18.207-23.164a79.73 79.73 0 0 0 5.457 3.098c-1.672 5.5-21.394 17.922-21.75 26.996Zm30.356 20.773c-19.364-8.715-17.809-23.52-17.688-30.215 4.184-3.586 11.953-13.851 13.27-15.996 0 0 3.343 1.551 4.418 1.91 1.074-.359 4.418-1.91 4.418-1.91 1.316 2.149 9.085 12.418 13.27 15.996.116 6.688 1.675 21.5-17.688 30.215Zm30.355-20.777c-.36-9.078-20.082-21.496-21.754-26.992a81.534 81.534 0 0 0 5.461-3.098c2.73 9.16 14.969 14.762 18.203 23.164.36-3.707 16.258-11.824 14.106-25.918-1.434 9.434-11.715 17.793-14.344 18.512-1.285-7.5-9.668-11.36-11.988-19.918 13.289-10.504 14.644-21.348 14.738-27.254 4.664 6.332-.356 16.242-.356 16.242a62.093 62.093 0 0 0 12.192-10.504c16.73 25.43-10.762 52.301-16.258 55.766Zm37.05-37.383c-.714-7.527-11.827-20.543-16.73-23.77.953-1.546 1.91-3.82 2.512-4.894a31.52 31.52 0 0 1 7.625 7.078 31.381 31.381 0 0 1 4.918 9.164c1.438-10.035-6.45-19.465-9.559-23.168 3.348-6.687.958-26.031-.238-29.976 31.672 19.23 16.016 59.832 11.473 65.566Zm-44.335-91.601c11.832 6.804 39.441 10.27 48.043 23.765-6.332-19.707-30.715-18.394-40.754-28.187 12.785 5.257 70.277 10.87 56.297 57.207-5.504-27.946-57.14-40.368-63.586-52.785Zm0 0"/></g><path d="M187.434 266.754c-4.711-1.117-11.114-6.371-13.34-13.219-.317 7.805 5.289 15.13 13.34 17.836 8.046-2.707 13.652-10.039 13.34-17.836-2.231 6.848-8.633 12.102-13.34 13.219Zm0 0"/><g clip-path="url(#d)"><path fill="#A79272" d="M286.879 161.082h87.75v1.113h-87.75Zm0 0"/></g><g clip-path="url(#e)"><path fill="#A79272" d="M286.879 213.18h87.75v1.117h-87.75Zm0 0"/></g><g clip-path="url(#f)"><path fill="#A79272" d="M.879 161.078h87v1.098h-87Zm0 0"/></g><g clip-path="url(#g)"><path fill="#A79272" d="M.879 212.45h87v1.1h-87Zm0 0"/></g><path fill="#E2D7C4" d="M37.543 279.05a3.376 3.376 0 1 0 .002 6.753 3.376 3.376 0 0 0-.002-6.752M37.543 88.262a3.376 3.376 0 1 0 .002 6.751 3.376 3.376 0 0 0-.002-6.751M337.242 279.05a3.376 3.376 0 1 0 .002 6.753 3.376 3.376 0 0 0-.002-6.752M337.242 88.262a3.376 3.376 0 1 0 .002 6.751 3.376 3.376 0 0 0-.002-6.751M80.951 43.84c3.125-1.594 6.203-1.907 9.235-.938 3.03.969 5.336 3.016 6.922 6.14l2.156 4.235c1.594 3.125 1.879 6.196.86 9.203-1.013 3.012-3.079 5.313-6.204 6.907l-11.484 5.828-1.563-3.063 2.453-1.906-9.312-18.328-2.985.844-1.562-3.094 2.719-1.375Zm-1.656 5.797 8.969 17.671 3.39-1.718c1.844-.926 2.97-2.274 3.375-4.047.407-1.77.102-3.656-.906-5.656l-2.156-4.266c-1.012-1.977-2.352-3.32-4.016-4.031-1.668-.707-3.422-.598-5.265.328ZM129.139 42.238l-9.266 2.86 2.407 7.812 8.843-2.734-.75-3.344 4.172-1.281 2.297 7.484-21.656 6.672-1.016-3.281 2.735-1.47-6.047-19.64-3.078.313-1.032-3.313 2.907-.89 18.718-5.766 2.313 7.516-4.219 1.296-1.25-3.187-8.766 2.703 2.11 6.875 9.265-2.86ZM147.647 46.999l2.953-.969-2.578-20.406-3.094-.203-.437-3.453 11.625-1.453.437 3.453-2.844.937.97 7.61 2.484-.313 4.453-8.64-1.688-.032-.437-3.453 11.25-1.406.437 3.453-3.015.89-5.829 10.235 9.282 10.219 2.922.14.421 3.407-11.265 1.421-.422-3.406 1.719-.453-6.516-7.547-3.187.406 1 7.875 2.984.235.422 3.406-11.625 1.453ZM204.213 35.112l-9.703-.469-.39 8.172 9.25.453.421-3.39 4.344.203-.375 7.812-22.625-1.094.172-3.437 3.062-.438 1-20.53-3.015-.75.156-3.47 3.047.157 19.547.937-.375 7.86-4.39-.204-.095-3.437-9.171-.453-.36 7.187 9.703.47ZM238.051 24.105c3.164.711 5.493 1.996 6.985 3.86 1.488 1.855 1.945 4.062 1.375 6.625-.313 1.418-.969 2.558-1.969 3.421-.992.868-2.289 1.454-3.89 1.766 1.55.856 2.562 1.93 3.03 3.219.47 1.293.516 2.777.141 4.453l-.328 1.437c-.137.602-.12 1.102.047 1.5.176.407.54.696 1.094.875l.672.25-.75 3.391-2.907-.656c-1.836-.406-3.015-1.188-3.546-2.344-.524-1.148-.606-2.508-.25-4.078l.343-1.578c.301-1.363.176-2.508-.375-3.438-.543-.937-1.468-1.57-2.78-1.906l-4.595-1.016-1.64 7.375 2.875 1.235-.75 3.36-11.578-2.579.75-3.36 3.109.094 4.469-20.062-2.86-1.25.766-3.39 2.984.671Zm-6.734 11.469 3.89.86c1.551.343 2.79.273 3.72-.22.925-.488 1.53-1.359 1.812-2.609.281-1.258.117-2.347-.484-3.265-.606-.926-1.665-1.563-3.172-1.907l-3.985-.875ZM268.756 36.672l-3.25 4.75-2.375-.875 3.75-10.203 3.688 1.36ZM299.889 57.707l-3.828-1.984 1.171-3.828c-.304-.508-.828-1.086-1.578-1.735a12.532 12.532 0 0 0-2.53-1.719c-1.4-.726-2.634-.992-3.704-.796-1.074.199-1.852.765-2.328 1.703-.45.855-.418 1.765.094 2.734.507.961 1.586 2.25 3.234 3.875 2.406 2.242 4 4.383 4.781 6.422.781 2.031.633 4.086-.437 6.172-1.125 2.176-2.875 3.441-5.25 3.797-2.375.363-4.977-.184-7.797-1.641-2.012-1.043-3.668-2.305-4.969-3.781-1.293-1.469-2.184-3.051-2.672-4.75l2.735-5.313 3.953 2.047-1.313 3.906c.29.68.801 1.375 1.531 2.094.739.727 1.649 1.375 2.735 1.938 1.394.718 2.601.984 3.625.797 1.031-.188 1.797-.762 2.297-1.72.5-.98.554-1.94.172-2.89-.387-.957-1.32-2.144-2.797-3.562-2.555-2.438-4.297-4.657-5.235-6.657-.93-2-.851-4.046.235-6.14 1.062-2.063 2.804-3.297 5.234-3.703 2.426-.407 4.973.058 7.64 1.39 1.958 1.012 3.587 2.23 4.891 3.657 1.301 1.43 2.239 2.917 2.813 4.468ZM71.318 302.682l-2.734-1.969 1.406-2.703c-.105-.613-.36-1.222-.766-1.828-.398-.601-.968-1.176-1.718-1.719-1.586-1.144-3.22-1.445-4.907-.906-1.687.531-3.203 1.73-4.546 3.594l-.454.625c-1.343 1.867-2.007 3.687-1.984 5.469.02 1.77.805 3.21 2.36 4.328.726.531 1.46.906 2.203 1.125.738.219 1.406.265 2 .14l2.125-2.156 2.734 1.969-2.61 3.61c-1.355.32-2.789.32-4.296 0-1.5-.313-2.953-.981-4.36-2-2.46-1.762-3.86-4.055-4.203-6.876-.344-2.832.442-5.582 2.36-8.25l.437-.61c1.914-2.644 4.27-4.257 7.063-4.843 2.789-.582 5.421.012 7.89 1.781 1.406 1.024 2.488 2.2 3.25 3.532.758 1.336 1.211 2.695 1.36 4.078ZM91.52 319.914l-6.735-3.546-3 5.687 6.422 3.39 1.453-2.296 3.03 1.594-2.874 5.453-15.766-8.297 1.266-2.39 2.344.687 7.515-14.297-1.906-1.516 1.266-2.406 2.125 1.11 13.625 7.171-2.875 5.453-3.078-1.609 1.078-2.469-6.375-3.36-2.625 5.016 6.734 3.547ZM119.54 318.033c2.405.855 4.097 2.078 5.077 3.671.977 1.586 1.117 3.352.422 5.297-.375 1.063-.992 1.887-1.844 2.47-.855.585-1.918.917-3.187 1 1.113.823 1.789 1.765 2.031 2.827.238 1.055.133 2.219-.312 3.5l-.391 1.063c-.168.468-.203.863-.11 1.187.102.32.36.582.766.781l.5.266-.906 2.563-2.203-.782c-1.387-.5-2.23-1.226-2.531-2.172-.305-.937-.246-2 .171-3.187l.438-1.203c.363-1.031.375-1.938.031-2.719-.336-.789-.996-1.379-1.984-1.766l-3.485-1.234-1.984 5.594 2.11 1.25-.907 2.547-8.781-3.14.906-2.548 2.422.375 5.422-15.219-2.11-1.265.907-2.563 2.265.813Zm-6.345 8.28 2.953 1.048c1.188.418 2.165.48 2.938.187.77-.289 1.32-.914 1.656-1.875.344-.945.32-1.805-.062-2.578-.387-.781-1.157-1.375-2.313-1.781l-3.015-1.078ZM145.66 328.207l-1.75-.047 1.343 14.031.031 1.266.063.016.5-1.141 6.53-12.5-1.609-.625.532-2.672 8.078 1.578-.531 2.672-1.891-.125-10.266 17.906-4.562-.89-2.781-20.469-1.766-.578.531-2.672 8.078 1.578ZM182.827 342.47l-7.625-.375-.312 6.406 7.265.344.329-2.672 3.437.172-.297 6.156-17.812-.86.125-2.702 2.437-.36.781-16.14-2.39-.578.14-2.704 2.407.11 15.375.75-.313 6.156-3.469-.172-.062-2.703-7.203-.344-.281 5.657 7.625.375ZM216.442 335.71l-3.344.313-.734-2.953a4.651 4.651 0 0 0-1.766-.891c-.687-.195-1.496-.254-2.422-.172-1.949.18-3.386 1.027-4.312 2.547-.918 1.512-1.274 3.406-1.063 5.687l.063.782c.207 2.28.898 4.09 2.078 5.422 1.188 1.324 2.734 1.902 4.64 1.734.895-.082 1.692-.285 2.391-.61.707-.32 1.242-.726 1.61-1.218l.187-3.016 3.344-.312.406 4.437c-.812 1.125-1.89 2.07-3.234 2.828-1.344.75-2.883 1.203-4.61 1.36-3.011.273-5.574-.547-7.687-2.453-2.117-1.907-3.324-4.493-3.625-7.766l-.063-.75c-.3-3.258.407-6.02 2.125-8.281 1.72-2.27 4.094-3.547 7.125-3.828 1.727-.157 3.317.023 4.766.53 1.457.5 2.695 1.227 3.719 2.173ZM243 335.457l-7.422 1.75 1.469 6.25 7.062-1.672-.406-2.656 3.344-.781 1.406 5.984-17.344 4.078-.625-2.625 2.219-1.015L229 329.05l-2.438.094-.625-2.656 2.328-.547 14.985-3.532 1.422 6.016-3.375.797-.813-2.578-7 1.656 1.297 5.516 7.422-1.75ZM262.884 315.643c2.375-.938 4.453-1.125 6.234-.563 1.79.555 3.063 1.79 3.813 3.703.406 1.055.476 2.086.219 3.094-.262 1-.84 1.95-1.735 2.844 1.375-.102 2.5.164 3.375.797.875.636 1.563 1.586 2.063 2.844l.406 1.062c.176.45.41.766.703.953.29.188.656.219 1.094.094l.531-.125 1 2.531-2.156.86c-1.387.53-2.508.542-3.36.03-.843-.519-1.496-1.366-1.953-2.546l-.468-1.188c-.399-1.02-.98-1.71-1.75-2.078-.774-.375-1.657-.379-2.657-.015l-3.421 1.343 2.171 5.532 2.407-.438.984 2.516-8.687 3.406-.985-2.516 2.078-1.312-5.906-15.031-2.422.437-1-2.531 2.25-.875Zm.656 10.406 2.907-1.14c1.164-.458 1.941-1.051 2.328-1.782.394-.726.406-1.562.03-2.5-.366-.945-.948-1.586-1.75-1.922-.792-.332-1.757-.273-2.89.172l-2.968 1.172ZM282.493 309.82l-1.28-2.39 8.202-4.438 1.281 2.39-1.89 1.579 7.672 14.203 2.36-.735 1.28 2.375-8.203 4.438-1.281-2.375 1.89-1.563-7.671-14.203ZM309.523 314.203l1.172-1.125-5.781-19.906 3.765-2.687 16.891 12 1.453-.75 1.563 2.203-6.25 4.453-1.563-2.203 1.11-1.14-2.61-1.938-5.937 4.234 1 3.078 1.421-.656 1.563 2.203-6.234 4.437Zm2.75-10.187 4.219-3-6.688-4.985-.078.047Zm0 0"/><path d="M300.692 193.477v-1.813l4.47-4.78c.644-.74 1.1-1.364 1.374-1.876.27-.508.406-.984.406-1.422 0-.582-.156-1.054-.468-1.422-.313-.375-.758-.562-1.328-.562-.637 0-1.122.219-1.454.656-.335.43-.5 1-.5 1.719h-2.687l-.031-.047c-.032-1.25.379-2.3 1.234-3.156.852-.864 2-1.297 3.438-1.297 1.425 0 2.546.37 3.359 1.11.812.741 1.219 1.726 1.219 2.952 0 .836-.23 1.606-.688 2.313-.46.71-1.219 1.633-2.281 2.765l-2.453 2.688.015.047h3.594l.11-1.36h2.109v3.485ZM327.199 188.102c0 1.824-.422 3.21-1.266 4.156-.836.95-1.965 1.422-3.39 1.422-1.45 0-2.594-.473-3.438-1.422-.836-.945-1.25-2.332-1.25-4.156v-3.047c0-1.82.414-3.207 1.25-4.156.844-.946 1.977-1.422 3.406-1.422 1.438 0 2.578.476 3.422 1.422.844.949 1.266 2.336 1.266 4.156Zm-2.766-3.328c0-1.094-.168-1.895-.5-2.407-.324-.507-.797-.765-1.422-.765-.625 0-1.101.258-1.422.765-.324.5-.484 1.305-.484 2.407v3.593c0 1.118.16 1.93.484 2.438.332.5.817.75 1.454.75.613 0 1.082-.25 1.406-.75.32-.508.484-1.32.484-2.438ZM334.91 193.477v-1.813l4.468-4.78c.644-.74 1.101-1.364 1.375-1.876.27-.508.406-.984.406-1.422 0-.582-.156-1.054-.469-1.422-.312-.375-.757-.562-1.328-.562-.636 0-1.12.219-1.453.656-.336.43-.5 1-.5 1.719h-2.687l-.032-.047c-.03-1.25.38-2.3 1.235-3.156.851-.864 2-1.297 3.437-1.297 1.426 0 2.547.37 3.36 1.11.812.741 1.218 1.726 1.218 2.952 0 .836-.23 1.606-.687 2.313-.461.71-1.219 1.633-2.281 2.765l-2.453 2.688.015.047h3.594l.11-1.36h2.109v3.485ZM351.837 193.477v-1.813l4.47-4.78c.644-.74 1.1-1.364 1.374-1.876.27-.508.406-.984.406-1.422 0-.582-.156-1.054-.468-1.422-.313-.375-.758-.562-1.328-.562-.637 0-1.122.219-1.454.656-.335.43-.5 1-.5 1.719h-2.687l-.031-.047c-.032-1.25.379-2.3 1.234-3.156.852-.864 2-1.297 3.438-1.297 1.425 0 2.546.37 3.359 1.11.812.741 1.219 1.726 1.219 2.952 0 .836-.23 1.606-.688 2.313-.46.71-1.219 1.633-2.281 2.765l-2.453 2.688.015.047h3.594l.11-1.36h2.109v3.485ZM18.92 187.414h-4.688v3.938h4.469l.11-1.656h2.109v3.78H9.998v-1.655l1.469-.282v-9.922l-1.47-.28v-1.673h10.907v3.782H18.78l-.125-1.641h-4.422v3.469h4.688ZM39.079 184.086H37l-.36-1.906c-.242-.145-.59-.273-1.046-.39a6.128 6.128 0 0 0-1.47-.173c-.761 0-1.35.165-1.765.485a1.47 1.47 0 0 0-.625 1.234c0 .461.219.84.656 1.14.438.306 1.188.622 2.25.954 1.52.43 2.672.992 3.454 1.687.789.7 1.187 1.61 1.187 2.735 0 1.187-.469 2.125-1.406 2.812-.938.68-2.172 1.016-3.703 1.016-1.094 0-2.086-.172-2.97-.516-.874-.351-1.605-.836-2.187-1.453v-2.875h2.141l.297 1.953c.27.23.644.422 1.125.578a5.349 5.349 0 0 0 1.594.22c.757 0 1.336-.157 1.734-.47.395-.312.594-.726.594-1.25 0-.53-.188-.957-.563-1.28-.375-.321-1.031-.626-1.968-.907-1.649-.469-2.891-1.023-3.735-1.672-.836-.656-1.25-1.55-1.25-2.687 0-1.114.473-2.024 1.422-2.735.945-.719 2.14-1.086 3.578-1.11 1.063 0 2.024.165 2.89.485.876.324 1.61.758 2.204 1.297ZM58.722 179.664v3.688h-2.125l-.11-1.547H53.94v9.734l1.485.282v1.656H49.69v-1.656l1.485-.282v-9.734h-2.531l-.11 1.547H46.41v-3.688ZM72.035 179.664c1.687 0 3.078.543 4.172 1.625 1.094 1.075 1.64 2.453 1.64 4.141v2.297c0 1.687-.546 3.07-1.64 4.14-1.094 1.075-2.485 1.61-4.172 1.61h-6.219v-1.656l1.469-.282v-9.922l-1.469-.28v-1.673Zm-1.984 2.141v9.547h1.828c1 0 1.78-.332 2.343-1 .563-.676.844-1.55.844-2.625v-2.313c0-1.062-.281-1.925-.844-2.593-.562-.676-1.343-1.016-2.343-1.016Zm0 0" fill="#333"/></svg>